<?xml version="1.0" encoding="UTF-8"?>
<svg id="Layer_1" data-name="Layer 1" xmlns="http://www.w3.org/2000/svg" viewBox="0 0 1080 1080">
  <defs>
    <style>
      .cls-1 {
        fill: #fff;
      }
    </style>
  </defs>
  <g>
    <path d="m206.65,529.12c6.29,8.16,12.95,16.09,20.04,23.56,8.45,8.9,17.17,17.61,26.41,25.67,9.26,8.06,19.16,15.42,29.07,22.69,6.29,4.62,13.31,8.24,19.65,12.8,10.87,7.81,23.09,12.93,35.3,17.97,7.07,2.92,14.86,4.05,22.1,6.63,10.37,3.69,21,5.16,31.9,5.59,1.81.07,3.75,1,5.34,2,4.61,2.92,5.15,7.77,5.42,12.61.15,2.67.79,4.66,3.96,4.95,5.89.53,11.75,1.4,17.64,1.79,6.25.41,7.32-.57,7.08-6.86-.65-16.61-1.42-33.22-2.34-49.82-1.11-20.24-2.48-40.47-3.62-60.72-.97-17.31-1.75-34.63-2.65-51.95-.79-15.36-1.61-30.72-2.45-46.07-1.39-25.34-2.84-50.67-4.22-76-.75-13.81-1.21-27.64-2.22-41.43-.27-3.66.69-6.04,3.62-7.73,6.35-3.66,13.36-2.82,20.18-2.38,1.12.07,2.83,2.74,2.98,4.33.99,10.81,1.74,21.65,2.37,32.49.93,15.76,1.71,31.52,2.53,47.29,1.18,22.67,2.37,45.35,3.51,68.03.92,18.46,1.88,36.92,2.63,55.38,1.04,25.65.67,51.33,3.25,76.95,1.73,17.24,1.64,34.66,2.72,51.97.39,6.25,1.81,6.95,8.19,6.86,6.35-.09,12.71-.13,19.06-.1,7.26.03,7.95-.5,7.75-7.95-.83-31.32-1.75-62.64-2.62-93.96-1.13-40.78-2.28-81.55-3.32-122.33-.32-12.42-.1-24.86-.55-37.27-.57-15.78-1.62-31.55-2.3-47.33-.06-1.4.81-3.74,1.8-4.09,1.42-.5,3.95-.17,4.95.85,5.64,5.74,9.18,3.96,15.23.4,2.28-1.34,5.8-1.5,8.43-.88,1.1.26,1.89,3.96,1.95,6.13.31,11.57.43,23.15.45,34.72.05,37.43.02,74.85.02,112.28.41,0,.82,0,1.23,0,0,46.46-.02,92.93.03,139.39,0,4.65.14,9.33.75,13.93.69,5.28,1.92,6.07,7.26,6.06,7.77-.01,15.53-.07,23.3-.11,6.77-.04,7.56-.81,7.66-7.55.18-12.14.34-24.28.49-36.42.52-40.94,1.11-81.88,1.53-122.81.22-21.18.09-42.37.23-63.55.17-25.7.44-51.4.7-77.09.05-5.4,2.58-6.9,7.55-4.55.76.36,1.39.96,2.13,1.36,6.92,3.76,9.34,3.52,14.19-.93,1.67-1.53,3.75-2.61,5.64-3.89.63,2.49,1.28,4.98,1.88,7.48.1.4-.02.84-.03,1.27-.98,25.07-2.05,50.14-2.92,75.21-.43,12.28-.46,24.57-.76,36.85-.87,35.15-1.73,70.29-2.69,105.44-.75,27.38-1.64,54.75-2.46,82.13-.15,5,1.74,7.05,6.64,7.08,7.49.04,14.97.04,22.46-.03,5.26-.05,6.59-1.28,6.94-6.39.62-9.15,1.28-18.3,1.72-27.46,2.1-43.42,4.12-86.85,6.18-130.27,1.22-25.75,2.47-51.49,3.67-77.24.3-6.49.41-12.99.71-19.47,1.15-24.79,2.35-49.58,3.51-74.37.18-3.81,2.74-8.25,5.2-8.15,5.35.21,10.77.34,15.99,1.35,5.98,1.15,6.73,2.82,6.33,8.91-1.2,18.44-2.45,36.89-3.5,55.34-.87,15.33-1.44,30.68-2.23,46.02-1.11,21.85-2.31,43.7-3.45,65.55-.69,13.11-1.2,26.23-2.04,39.33-1.45,22.64-3.28,45.26-4.57,67.9-.77,13.53-.79,27.1-1.19,40.65-.12,4.09-.65,8.18-.55,12.25.11,4.9,1.58,6.18,6.46,6.25,3.67.05,7.34-.14,11.01-.14q10.49,0,11.47-10.41c.57-6.11,5.65-10.64,11.68-11.13,7.54-.61,15.19-1.03,22.51-2.73,9.39-2.19,18.66-5.17,27.71-8.54,13.73-5.12,26.73-11.82,38.96-19.96,6.36-4.24,13.16-7.88,19.16-12.57,12.16-9.51,24.15-19.28,35.74-29.47,8.35-7.33,16.31-15.18,23.79-23.39,10.68-11.72,21.68-23.12,27.48-38.61,3.78-10.08,5.29-20.07,4.6-30.58-.14-2.22-.24-4.71-1.28-6.55-3.68-6.5-7.28-13.13-11.8-19.04-7-9.15-14.53-17.92-22.2-26.53-6.32-7.1-13.05-13.85-19.78-20.58-6.92-6.91-14.1-13.54-21.08-20.39-3.94-3.87-7.97-7.72-11.4-12.02-1.82-2.29-1.71-6.36-3.76-8.18-7.32-6.54-14.91-12.86-22.93-18.51-8.22-5.79-17.42-10.22-25.52-16.16-5.93-4.35-12.78-7.22-17.96-13.05-4.05-4.56-10.36-7.22-15.87-10.36-8.86-5.05-18.39-8.16-28.56-9.54-5.68-.77-11.27-2.33-16.85-3.73-6.76-1.69-13.43-3.8-20.22-5.34-6.16-1.39-12.62-1.68-18.61-3.52-5.05-1.55-10.92-1.55-14.82-6.07-1.46-1.69-3.23-3.14-4.51-4.95-1.19-1.69-3.16-4.47-2.58-5.42,1.05-1.72,3.63-3,5.78-3.43,3.14-.64,6.5-.11,9.7-.54,9.87-1.31,17.89-8.21,15.34-19.67-1.23-5.51-1.12-11.23,2.95-16.04.58-.69.85-1.83.89-2.77.22-5.76,1.08-11.62.29-17.25-1-7.16,1.53-11.85,7.2-15.62,3.14-2.09,4.34-6.37,2.49-9.62-3.79-6.62-7.9-13.05-11.92-19.54-2.19-3.53-4.28-7.19-2.92-11.48,3.54-11.19-2.45-20.11-6.64-29.52-1.88-4.22-4.39-7.97-2.16-13.48,2.4-5.92,5.8-12.1,3.79-19.07-1-3.49-1.71-7.12-3.16-10.41-3.24-7.32-6.76-13.13-16.76-12.84-1.26.04-2.53-.17-3.8-.29-13.31-1.3-26.59-3.02-39.93-3.81-16.26-.96-32.33,1.16-48.39,3.92-13.25,2.28-25.32,7.32-36.51,14.15-18.77,11.45-28.82,29.88-34.11,50.22-3.48,13.36-2.38,27.52,1.66,41.35,3.93,13.44,9.78,25.9,16.25,38.12,4.29,8.1,9.36,15.77,13.95,23.72,3.42,5.93,6.83,11.88,9.89,18,2.75,5.49.41,10.38-5.4,10.96-6.3.62-9.9,4.41-13.2,9.12-1.73,2.46-3.54,5.54-6.05,6.65-5.94,2.62-12.23,4.65-18.56,6.16-10.95,2.61-22.06,4.55-33.06,6.94-7.94,1.72-15.87,3.52-23.7,5.66-6.48,1.77-13.44,3.05-19.05,6.44-8.61,5.21-17.79,9.49-25.28,16.89-5.82,5.76-14.17,8.92-21.25,13.46-7.24,4.64-14.33,9.54-21.45,14.37-3.12,2.12-6.14,4.37-9.23,6.53-5.1,3.58-10.04,7.26-12.67,13.24-1.28,2.9-2.36,6.2-4.51,8.35-9.49,9.52-19.54,18.47-28.99,28.03-15.44,15.63-31.31,30.95-44.01,49.01-4.21,5.98-7.99,12.55-10.54,19.38-4.98,13.35.02,26.11,4.76,38.37,2.41,6.24,6.54,11.99,10.67,17.35Zm487.42-176.55c.72-5.17,1.48-10.33,2.16-15.5.48-3.71,2.81-4.67,5.66-3.08,5.98,3.34,11.84,6.92,17.52,10.76,13.28,8.99,26.44,18.16,39.6,27.33,3.87,2.7,7.6,5.6,11.33,8.48,2.29,1.77,1.69,7.67-1.02,10.76-1.47,1.67-3.25,3.15-4.39,5.01-2.13,3.45-5.05,3.08-7.65,1.45-13.48-8.44-26.8-17.14-40.23-25.66-5.52-3.5-11.26-6.66-16.78-10.18-3.36-2.14-6.53-4.62-6.2-9.39Zm-.76,44.67c.3-1.03,1.7-1.75,2.85-2.86,3.52,1.84,6.74,3.21,9.63,5.09,11.93,7.76,23.76,15.67,35.63,23.53,2.43,1.61,2.79,6,.68,9.61-.63,1.09-1.55,2.01-2.3,3.04-4.58,6.25-6.35,6.38-12.49,1.98-4.39-3.14-9.22-5.65-13.75-8.58-5.02-3.24-9.91-6.67-14.89-9.98-1.51-1-3.7-1.52-4.52-2.89-1.51-2.5-3.04-5.47-3.08-8.26-.05-3.56,1.21-7.18,2.24-10.67Zm-9.42,129.79c.16,0,.33,0,.49-.01.46-9.01.93-18.02,1.38-27.03.8-15.75,1.62-31.49,2.36-47.24.26-5.43,3.67-7.4,8.41-4.55,7.64,4.58,15.12,9.44,22.82,13.91,5.89,3.42,11.96,6.55,18.07,9.55,1.69.83,3.93.46,5.78,1.06,4.18,1.37,8.32,2.86,12.38,4.55,8.56,3.56,15.81,9.92,25.61,10.95,6.82.72,8.1,3.97,4.68,9.94-7.5,13.08-15.64,25.8-25.55,37.16-7.65,8.78-15.95,17.04-24.4,25.06-5.58,5.3-12.74,4.74-19.62,2.88-9.06-2.45-17.98-5.38-27.04-7.83-3.94-1.07-5.51-3.23-5.42-7.24.17-7.05.05-14.1.05-21.15Zm-15.68,52.26c.54-4.93,1.55-7.04,6.52-6.64,5.57.45,11.09,1.65,16.58,2.74,3.98.79,7.9,1.93,11.85,2.89,6,1.46,11.96,3.2,18.03,4.28,11.12,1.98,19.86-3.58,27.75-10.22,7.89-6.64,15.46-13.72,22.6-21.15,5.08-5.29,9.61-11.22,13.7-17.32,7.29-10.88,13.85-22.26,21.18-33.11,2.83-4.19,6.61-7.91,10.52-11.17,10.36-8.62,5.3-12.32-3.22-17.09-8.74-4.9-18.04-8.8-26.88-13.53-4.95-2.65-6.13-8.17-3.4-13.23,1.85-3.42,3.95-6.71,5.86-10.11,2.99-5.31,6.13-10.54,8.81-16,2.55-5.21,6.86-7.86,10.73-5.66,2.01,1.14,3.61,2.99,5.46,4.43,13.66,10.65,25.9,22.81,37.31,35.78,4.58,5.21,9.07,10.69,12.42,16.7,2.54,4.55,3.84,9.61,2.67,15.67-1.95,10.06-6.44,18.95-11.3,27.42-5.17,9.01-12.19,17.08-19.15,24.9-8.29,9.31-17,18.33-26.25,26.68-6.99,6.31-14.95,11.6-22.76,16.94-8.94,6.11-17.85,12.43-27.41,17.44-9.32,4.88-18.45,10.41-28.92,12.96-5.97,1.45-11.65,4.08-17.62,5.47-4.62,1.07-9.49,1.05-14.25,1.52-.01-.12-.02-.25-.03-.37-1.27,0-2.57-.16-3.81.03-9.12,1.35-14.83-3.34-19.39-10.51-2.22-3.49-4.38-6.84-3.93-11.22.07-.68.09-1.65-.3-2.05-4.71-4.79-4.04-10.44-3.39-16.44Zm-131.82-180.55c-4.55-.07-7.86-3.14-7.68-7.12.18-4.05,3.99-7.72,8.06-7.76,4-.05,7.3,3.76,7.18,8.27-.11,4.3-2.84,6.69-7.55,6.61Zm-.06-46.87c-3.21-.18-7.52-4.74-7.53-7.95,0-3.66,4.02-7.37,8.09-7.48,3.19-.08,7.12,4.26,7.12,7.88,0,3.31-4.49,7.73-7.68,7.55Zm-24.14-185.89c3.49,1.2,6.36,4.34,9.37,6.77,1.6,1.3,2.81,3.06,4.33,4.48,6.22,5.84,12.45,3.19,15.07-3.79,3.76-10.06,7.84-19.89,15.9-27.49,7.72-7.28,16.7-11.7,27.02-14.43,8.17-2.16,16.19-3.29,24.54-2.98,2.94.11,5.64.5,7.15,3.37,1.6,3.07,3.44,6.1,4.49,9.36,1.53,4.79-2.51,7.75-7.56,9.13-7.85,2.13-15.91,3.71-23.49,6.54-6.63,2.48-6.88,6.82-2.39,11.21,5.24,5.12,12.25,6.8,18.99,8.26,2.85.62,7.09-.36,8.78-4.35.32-.76.97-1.38,1.47-2.05,4.99-6.74,6.49-3.91,10.63.89,2.45,2.84,4.43,6.09,6.47,9.25,2.99,4.61,2.52,6.39-2.34,8.93-1.35.7-2.94.94-4.4,1.44-4.21,1.47-5.21,5.81-2.1,9.05,4.15,4.31,3.76,7.62-1.36,10.41-3.07,1.67-6.42,2.91-9.28,4.86-1.18.8-1.99,3.04-1.85,4.51.07.76,2.56,1.45,4.04,1.85.89.24,2.04-.44,2.91-.18,1.84.55,4.55,1.02,5.1,2.3.61,1.42-.21,4.24-1.41,5.5-2.49,2.63-3.3,4.94-2.24,8.62,3.04,10.55-1.48,15.87-14.2,16.32-9.29-1.21-19.51-2.39-29.68-3.91-10.45-1.55-20.84-3.57-31.3-5.07-3.54-.51-7.86-1.02-9.92,2.8-2.17,4.01-1.22,7.98,1.94,11.63,3.65,4.22,6.75,8.9,10.16,13.33,3.05,3.97,3.41,8.56,3.26,13.28-.13,4.37-.17,8.76-.59,13.11-.5,5.18-4.89,7.4-9.1,4.3-9.52-7.02-19.06-14.06-28.03-21.76-7.67-6.58-8.72-16.34-4.45-25.5,1.33-2.85,1.99-6.25,2.03-9.41.14-11.15.58-22.38-.56-33.43-.5-4.84-4.73-9.23-6.98-13.95-2.59-5.42-5.82-10.77-7.07-16.53-2.21-10.19,5.39-20.57,16.66-16.68Zm-130.55,234.55c.64,2.58.89,5.25,1.35,8.18-.51,3.36-1.24,6.56-4.96,8.81-11.7,7.08-23.16,14.57-34.74,21.86-3.42,2.15-5.69,1.63-7.8-1.68-1.41-2.22-2.78-4.47-4.18-6.7-2.26-3.61-1.93-5.69,1.64-8,7.97-5.16,16.06-10.14,24.01-15.32,5.34-3.48,10.41-7.39,15.84-10.7,1.84-1.12,4.55-1.61,6.63-1.21,1.02.2,1.77,3.03,2.21,4.77Zm-76.64-20.53c7.36-5.24,14.47-10.84,21.89-15.98,11.67-8.09,23.49-15.96,35.29-23.85,3.45-2.3,6.94-4.63,10.68-6.41,3.36-1.6,5.05-.4,5.34,3.34.23,3.08.05,6.19.05,9.16,2.67,8.96-1.15,14.11-8.83,18.5-12.95,7.42-25.26,15.96-37.88,23.97-4.96,3.14-10.01,6.14-15.06,9.13-3.64,2.15-6.12.03-8.29-2.57-1.78-2.14-3.4-4.43-5.04-6.68-2.39-3.28-1.57-6.19,1.85-8.62Zm-3.05,105.5c7.29-3.45,14.29-7.51,21.45-11.23,1.33-.69,2.9-1.47,4.3-1.39,6.59.41,11.78-2.74,17.18-5.86,8.43-4.87,17.14-9.27,25.66-13.99,1.8-1,3.32-2.5,4.95-3.8,4.89-3.87,9.35-2.44,10.18,3.67.81,5.99.91,12.09,1.21,18.14,1.04,20.99,2.04,41.99,3.05,62.98.07,0,.13,0,.2,0,.21,4.66.24,9.33.69,13.96.35,3.63-1.43,5.62-4.41,6.83-2.47,1-5.05,1.77-7.62,2.52-6.71,1.96-13.48,3.75-20.16,5.8-10.27,3.14-18.86.51-25.87-7.39-9.35-10.56-19.01-20.89-27.7-31.98-6.59-8.4-11.92-17.78-17.72-26.79-2.04-3.16-1.28-6.02,2.28-7.46,4.01-1.62,8.46-2.19,12.34-4.02Zm-88.45-20.05c11.07-14.66,23.73-27.75,37.76-39.56,4.47-3.76,8.91-7.57,13.45-11.25,3.3-2.67,7.15-1.76,9.17,1.84,5.57,9.96,11.17,19.91,16.85,29.8,2.99,5.21,2.88,7.82-2.24,11.04-6.92,4.35-14.24,8.08-21.4,12.03-3.9,2.15-8.02,3.95-11.72,6.39-4.76,3.14-4.81,7.54-.7,11.62,4.77,4.74,9.78,9.29,14.05,14.46,2.48,3,3.5,7.17,5.54,10.59,2.99,5.02,6.05,10.05,9.55,14.72,5.6,7.49,11.33,14.92,17.5,21.94,5.55,6.32,11.74,12.09,17.69,18.06,5.45,5.48,11.81,9.54,18.68,13.16,6.77,3.57,13.41,2.67,20.14,1.34,5.46-1.08,10.69-3.3,16.13-4.53,7.67-1.73,15.39-3.29,23.17-4.38,6.79-.95,8.31.98,8.79,7.67.4,5.6-1.47,10.41-2.77,15.65-1.74,7.05-4.83,12.56-9,18.11-2.48,3.3-5.32,4.9-9.13,5.09-3.52.17-7.06.04-9.23.04-11.48,1.15-20.78-2.24-30.01-5.59-8.38-3.04-16.95-5.96-24.71-10.25-12.44-6.87-24.35-14.71-36.36-22.34-12.21-7.76-23.28-17.05-33.14-27.56-9.39-10.01-17.94-20.81-26.89-31.24-8.48-9.88-13.08-21.78-17.09-33.85-2.88-8.65.69-16.07,5.95-23.03Z"/>
    <path d="m886.46,771.72c-10.21-19.99-27.52-29.7-49.16-33.02-13.3-2.04-24.14,1.93-33.08,11.79-1.79,1.98-3.74,3.88-5.87,5.47-3.92,2.91-7.69,6.73-12.14,8.02-6.12,1.78-16.78-4.69-17.81-11.03,8.08-3.55,16.25-6.66,23.94-10.69,4.4-2.3,8.61-5.57,11.85-9.32,5.93-6.85,2.35-18.59-6.39-20.6-11.59-2.67-23.26-4.13-34.42,2.67-14.62,8.91-24.6,20.47-24.67,38.58,0,.97-.66,2.26-1.43,2.85-7.58,5.78-15.44,10.81-25.42,11.54-6.7.49-16.34-4.05-18.92-11.91,1.83-.6,3.67-1.18,5.5-1.81,10.32-3.53,20.43-7.5,28.56-15.11,7.07-6.61,6.89-15.32-.92-20.97-3.39-2.45-7.77-4.15-11.92-4.8-20.57-3.27-50.55,15.65-50.68,42.89,0,1.35-.58,3.4-1.54,3.91-4.31,2.3-8.69,4.86-13.37,6.03-8.03,2.01-10.98-1.26-8.91-9.35,1.58-6.13,3.64-12.15,5.64-18.17,2.43-7.31,5.02-14.57,7.77-22.53-6.89.36-13.39-1.12-16.83,6.51-1.06,2.35-3.05,4.5-5.11,6.12-3.38,2.66-7.15,4.8-10.76,7.16-.3-.36-.59-.72-.89-1.08.22-1.37.48-2.73.64-4.1.84-7.35-3.86-13.19-10.53-12.89-5.55.25-10.42,2.21-14.4,6.24-7.22,7.31-6.76,17.66.76,24.03,1.14.96,1.58,3.87,1.04,5.42-.79,2.29-2.36,4.72-4.29,6.14-5.89,4.34-11.89,8.64-18.29,12.14-3.58,1.96-7.98,2.79-12.12,3.32-8.36,1.06-16.36-3.76-19.6-11.45,1.15-.44,2.3-.85,3.43-1.31,6.78-2.79,13.64-5.39,20.28-8.48,3.14-1.46,6.01-3.67,8.72-5.88,4.43-3.61,7.99-7.97,6.41-14.17-1.64-6.43-6.32-10.22-12.49-12.1-9.54-2.9-18.78-1.45-27.55,2.82-16.77,8.16-27.77,20.48-28.16,40.2-.02.95-.62,2.28-1.38,2.77-6.52,4.19-12.95,8.57-19.81,12.12-2.58,1.34-6.28,1.05-9.35.63-1.17-.16-3-2.86-2.85-4.22,1.15-10.37,2.62-20.71,4.26-31.02.28-1.73,1.6-3.53,2.91-4.8,4.46-4.3,9.3-8.22,13.7-12.59,7.22-7.17,13.46-15.12,14.21-25.75.99-14.11-4.51-23.82-21.15-20.08-5.45,1.22-10.83,3.27-15.85,5.74-2.78,1.37-5.56,3.98-6.95,6.74-7.21,14.29-11.75,29.56-15.4,45.11-.45,1.9-.8,4.01-1.88,5.54-4.95,7.02-9.93,14.05-15.32,20.73-5.33,6.62-11.35,12.57-19.6,15.69-9.97,3.77-20.9-.45-25.44-10.25,1.97-.72,3.92-1.47,5.89-2.14,9.66-3.27,19.16-6.96,26.97-13.75,9.18-7.98,8.38-17.73-1.81-24.02-1.88-1.16-4.08-1.98-6.24-2.48-12.39-2.86-23.61.51-33.68,7.51-14.44,10.04-22.86,23.18-19.42,41.72.19,1-.01,2.37-.59,3.18-5.13,7.18-10.89,13.74-19.32,17.21-5.42,2.23-8.14.41-8.16-5.43,0-2.52.22-5.05.55-7.55,2.06-15.37.84-29.91-10.28-42.05-.32-.35-.35-.97-.51-1.44,4.64-2.21,9.14-4.23,13.53-6.47,26.56-13.55,26.1-43.13,15.34-58.03-7.32-10.14-18.08-15.29-29.79-18.04-30.03-7.06-58.88-3.18-86.2,11.08-14.74,7.69-26.01,18.71-31.21,35.03-5.01,15.72-1.82,27.84,9.68,37.43,2.05,1.71,3.78,1.97,6.09.67,7.38-4.15,14.83-8.16,22.23-12.27.68-.38,1.2-1.03,2.21-1.93-4.33-2.31-8.29-4.34-12.18-6.52-5.5-3.08-7.99-7.88-6.98-14.08,1.07-6.58,4.09-12.43,8.76-17.07,17.66-17.54,39-24.83,63.66-21.42,12.64,1.75,22.36,10.64,24.51,21.56,2.02,10.24.87,20.29-3.15,29.89-2.11,5.04-5.06,9.7-11.08,10.67-4.99.81-10.06,1.18-15.1,1.66-2.58.25-3.57-1-3.18-3.58.55-3.62,1.01-7.26,1.4-10.91,1.18-11.21,3.32-22.04,11.14-30.89,1.05-1.18,2.2-4.13,1.86-4.38-2.71-2.08-3.97-6.74-8.64-5.56-2.73.69-5.45,1.52-8.06,2.57-19.01,7.66-28.54,22.91-32.07,42.08-2.78,15.09-3.97,30.47-6.24,45.67-1.84,12.3-4.28,24.53-11.76,34.96-4.23,5.89-9.92,9.04-17.4,8.43-2.98-.24-5.38-1.45-5.87-4.51-.7-4.42-1.4-8.93-1.26-13.38.19-6.08,1.15-12.14,1.86-18.94-10.12,5.89-19.63,11.35-29.01,17.01-.89.54-1.56,2.41-1.4,3.54.56,4.04,1.16,8.14,2.38,12.02,3.53,11.3,14.97,18.67,28.98,18.41,24.39-.46,43.74-10.86,57.84-30.68,8.99-12.63,12.49-27.28,14.45-42.41.69-5.33,1.72-5.88,7.1-5.39,3.77.34,5.41,2.77,5.34,5.92-.15,6.45-.57,12.93-1.43,19.32-1.57,11.55-2.68,23.03,1.46,34.3,2.8,7.62,7.67,13.05,16.04,14.66,8.54,1.65,16.54.11,24.15-3.89,9.17-4.82,16.12-12.23,22.93-19.8,2.22-2.47,4.41-4.96,6.48-7.28,13.9,8.13,27.65,7.99,41.58,2.28,9.69-3.97,17.62-10.51,24.82-17.98,3.86-4,7.66-8.04,11.48-12.07.3.11.6.22.9.32-2,20.59-4.01,41.19-6.03,61.99l-21.39-.55c-78.98,1.57-154.82,16.35-230.15,38.36,10.27,22.02,19.94,42.87,29.71,63.67,13.55,28.86,27.18,57.67,40.75,86.52,2.1,4.47,3.65,4.74,6.92.96,7.47-8.64,15.91-20.33,22.39-25.93,14.86-12.83,66.29-42.12,66.29-42.12,0,0,40.82-21.73,54.8-28.21,11.69-5.41,37.34-14.62,54.22-18.94,29.34-7.51,43.03-9.61,69.49-12.88,35.01-4.33,67.53-6.44,95.19-6.41,23.88.03,63.66-3.14,96.48-4.68,22.95-1.08,40.82-2.37,68.69-4.29,14.58-1.01,27.89-1.64,41.71-7.19,23.04-9.27,38.19-26.08,45.71-49.58,4.59-14.33,5.8-28.94-1.33-42.89Zm-392.64-73.21c.33-1.19.93-2.6,1.86-3.25,1.61-1.12,3.61-2.37,5.39-2.3.97.04,2.48,2.64,2.61,4.18.23,2.72.05,5.65-.77,8.24-2.5,7.94-8.51,13.22-14.35,18.57-.5-.26-.99-.51-1.49-.77,2.24-8.23,4.44-16.47,6.74-24.68Zm-91.93,40.47c5.1-1.97,8.13-.1,7.84,5.4-.14,2.63-1.08,5.67-2.7,7.66-4.14,5.08-10.21,6.98-16.36,8.74-1.25-9.57,3.65-18.89,11.22-21.81Zm373.97-18.18c1.98-.6,5.13-1.14,6.17-.12,1.52,1.5,2.61,4.69,2.09,6.7-.78,3.05-2.49,6.51-4.91,8.35-3.89,2.95-8.68,4.72-13.5,7.2-2.25-7.19,2.67-19.87,10.15-22.13Zm-74.47,3.35c5.03-1.89,7.61-.21,7.87,5.07.22,4.46-1.56,8.14-5.2,10.41-4.22,2.63-8.84,4.62-13.85,7.18-1.28-10.63,3.58-19.8,11.18-22.66Zm-148.67,6.92c3.28-.7,5.48.33,6.11,3.93.73,4.2-.41,7.78-3.32,10.82-3.11,3.24-10.25,6.51-15.36,7.1-2.42-8.15,4.44-20.1,12.57-21.85Zm300.68,64.19c-6.59,18.96-25.74,29.22-45.45,30.51-14.2.93-28.5.31-42.75.36-31.32.11-62.65.18-93.97.33-22.01.1-44.01.37-66.01.47-35.56.15-71.12.24-106.67.29l-24.03-.62c.8-8.91,1.67-17.82,2.58-26.72.24-2.35.31-4.98,1.48-6.84.52-.82,3.59-.04,5.5.04,8.91.37,15.53-4.28,21.78-9.82,3.12-2.77,6.33-5.44,8.63-7.42,5.48,4.11,9.83,8.63,15.13,11.07,12.65,5.84,26.04,4.71,38.25-.79,16.59-7.47,30.65-18.84,41.66-33.53,2.53-3.37,5.44-4.52,9.52-4.4-1.91,4.77-4.01,9.22-5.47,13.86-1.97,6.28-2.31,12.74,2.44,18,5.39,5.97,12.58,8.15,20.03,5.29,7.01-2.69,13.57-6.67,20.11-10.46,3.45-2,6.44-4.81,8.54-6.42,5.65,4.17,10.05,9.1,15.54,11.16,17.48,6.54,34.11,3.39,49.37-7.1,3.9-2.68,7.55-5.75,9.54-7.28,3.49,2.56,6.36,4.62,9.18,6.74,12.73,9.57,26.74,7.99,40.89,4.58,9.51-2.29,16.83-8.41,24.05-14.52,7.42-6.29,15.85-6.43,24.34-3.76,14.42,4.52,21.27,21.3,15.81,36.99Z"/>
  </g>
  <g>
    <path class="cls-1" d="m282.7,954.09c-4.29,3.13-8.1,5.58-11.51,7.26-3.4,1.68-6.24,2.25-8.68,1.65-1.71-.42-3.27-1.61-4.72-3.46-1.45-1.84-2.66-4.04-3.62-6.51-1.2-3.1-1.89-6.36-1.89-9.74,0-3.38,1.08-6.26,3.5-8.74.34-.31.67-.59.99-.84.32-.24.64-.46.96-.63,1.56-.88,3.18-1.24,4.79-1.1,1.61.14,2.9.61,3.82,1.44-.24.47-.52,1.23-.84,2.27-.32,1.04-.47,1.86-.46,2.43-.35,3.11-.04,5.89.82,8.29,1.17,3.26,3.07,5.23,5.83,5.75,2.76.52,5.88-.56,9.62-3.15,3.39-2.34,6.49-5.44,9.21-9.13s4.76-7.43,5.99-11.24c1.23-3.81,1.3-7.31.13-10.65-.87-2.49-2.56-4.76-5.11-6.91-2.2-1.85-4.82-3.27-7.85-4.28-3.03-1.01-5.92-2.01-8.6-3.01-3.66-1.36-7.2-2.86-10.57-4.39-3.37-1.53-6.37-3.52-9-5.89-2.63-2.38-4.63-5.39-5.93-8.94-1.24-3.37-1.56-6.82-.84-10.3.71-3.47,2.51-6.58,5.34-9.35,3.21-3.14,7.37-5.68,12.34-7.58,4.97-1.9,10.34-3.36,15.93-4.4,6.96-1.29,12.4-1.71,16.46-1.25,4.05.46,6.98,1.46,8.95,2.96,1.97,1.51,3.16,3.26,3.65,5.24.47,1.91.38,3.84-.29,5.81-.67,1.97-1.82,3.76-3.51,5.4-1.69,1.64-3.73,2.92-6.16,3.82-.4.17-.81.31-1.23.42-.42.1-.9.22-1.43.35-2.34.57-4.53.71-6.56.4-2.03-.31-3.34-1.38-3.9-3.19-.07-.23-.12-.5-.16-.81-.04-.31-.1-.87-.03-.96.53-.62,3.87-1.38,5.66-2.8,1.79-1.42,2.83-2.79,3.16-4.11.27-1.08.31-2.04.1-2.87-.52-2.03-2.22-3.39-5.2-4.06-2.99-.67-6.36-.66-10.11.05-4.44.84-8.29,2.23-11.44,4.19-3.15,1.97-5.38,4.2-6.66,6.71-1.28,2.51-1.48,5.05-.65,7.58.83,2.53,2.72,4.81,5.59,6.58,2.34,1.44,5.23,2.77,8.51,4,3.28,1.23,6.58,2.29,9.87,3.21,3.29.92,6.13,1.76,8.53,2.56,5.37,1.57,9.43,3.43,12.29,5.68,2.86,2.25,4.75,4.7,5.74,7.47,1.13,3.19,1.14,6.63.03,10.54-1.11,3.91-3.16,8.03-6.12,12.48-2.96,4.45-6.67,8.98-10.97,13.52-4.3,4.54-8.96,8.7-13.76,12.2Z"/>
    <path class="cls-1" d="m308.71,969.11c.38-.96.82-2.47,1.32-4.51.5-2.04,1.02-4.21,1.55-6.48.53-2.27.95-4.17,1.27-5.7.88-4.54,1.77-9.88,2.61-15.8.84-5.93,1.58-11.82,2.25-17.63.67-5.81,1.26-11.06,1.82-15.88.56-4.82,1.12-8.67,1.71-11.68.55-2.79,1.1-5.02,1.62-6.7.52-1.68,1.6-3.08,3.18-4.18,1.58-1.09,3.7-1.88,7.84-3.16,1.77-.55,2.64-.81,4.32-1.33-1.12,1.03-2.4,2.98-3.88,5.88-1.48,2.9-2.15,5.57-2.95,8.51.38-.74.72-1.45,1.03-2.12.3-.67.66-1.31,1.06-1.9,1.7-3.14,4.68-6.34,7.44-8.96,2.75-2.61,5.51-4.31,8.26-5.11,2.26-.66,4.26-.54,6.05.31,1.79.84,3.03,2.76,3.82,5.69.73,2.7.86,5.57.39,8.7-.47,3.13-1.37,6.3-2.78,9.58-1.41,3.28-3.16,6.46-5.35,9.56-.43.66-.93,1.33-1.5,2.01-.57.69-1.18,1.37-1.82,2.05,2.74-.87,5.1-2.36,7.15-4.43,2.05-2.07,3.75-4.25,5.17-6.53,1.42-2.28,2.53-4.23,3.31-5.87.94-1.98,1.79-4.23,2.61-6.63.82-2.4,1.46-4.45,1.92-6.18.16-.48.33-.74.52-.8.51-.15.89.28,1.14,1.3.22.91.11,1.95-.25,3.1-.31.99-.71,2.32-1.26,3.94-.55,1.62-1.05,3.06-1.5,4.31-1.95,4.97-4.56,9.68-8.2,14.16-3.64,4.48-9.58,8.28-16.2,11.33-.54.25-1.1.51-1.7.79s-1.24.54-1.9.79c-1.97.77-4.01,1.38-6.03,1.65s-3.65-.3-4.83-1.78c-.78,8.78-1.24,13.48-2.57,23.6-.43,3.36-.93,6.3-1.48,8.75-.55,2.45-1.44,4.63-2.65,6.53-1.21,1.9-3.14,3.79-5.77,5.72-2.71,1.98-4.06,3-6.73,5.06Zm25.92-52.4c1.44-.69,2.88-2.04,4.27-3.96,1.39-1.92,2.42-3.96,3.82-6.34,1.39-2.38,2.46-4.56,3.25-6.55,1.18-3.16,2-6.2,2.51-9.16.52-2.96.53-5.22.03-6.83-.55-1.79-1.8-2.39-3.86-1.72-1.81.58-3.67,1.87-5.58,3.82-1.37,1.4-2.99,3.31-4.18,5.53-1.19,2.21-2.33,4.7-3.4,7.47-1.07,2.78-1.84,5.57-2.25,8.33-.42,2.75-.33,5.12.28,7,.11.34.23.64.38.93.14.28.31.57.51.86.93,1.34,2.36,1.53,4.23.63Z"/>
    <path class="cls-1" d="m380.03,901.39c-2.61,1-5.06,1.03-7.44.06-2.38-.97-4.1-3.38-5.04-7.14-.69-2.76-.89-5.79-.54-9.07.34-3.28,1.23-6.46,2.64-9.52,1.41-3.06,3.37-5.73,5.86-7.95,2.49-2.22,5.5-3.64,9.1-4.26,2.95-.51,5.42-.38,7.31.3,1.9.69,3.4,1.74,4.45,3.15,1.06,1.41,1.75,2.95,2.08,4.65.25,1.29.3,2.62.17,4-.13,1.38-.42,2.78-.85,4.21,1.36.81,2.94,1.04,4.82.7,2.03-.37,3.78-1.21,5.67-2.61,1.1-.8,2.05-1.75,2.84-2.83.79-1.08,1.48-2.08,2.07-3,.19-.34.45-.53.77-.59.4-.07.66.25.78.94.08.44.07.98-.03,1.61-.1.63-.41,1.3-.95,2.01-.98,1.51-2.08,2.73-3.3,3.64-1.23.92-2.67,1.72-4.11,2.39-1.08.51-2.24.88-3.46,1.11-2.23.42-4.24.32-6.09-.32-.36,1.01-.85,2.08-1.44,3.22-1.38,3.06-3.31,5.97-5.68,8.76-2.37,2.8-5.53,4.98-9.61,6.54Zm2.59-4.57c1.32-.46,2.51-1.34,3.59-2.62,1.08-1.28,2.04-2.71,2.88-4.29.84-1.58,1.55-3.13,2.13-4.69.58-1.55,1.06-2.88,1.44-4.02-2.48-1.05-3.92-2.75-4.39-5.09-.31-1.54-.05-2.85.81-3.9.86-1.05,2.21-1.68,4.11-1.9-.3-1.2-.9-2.14-1.78-2.81-.89-.68-2.15-.89-3.77-.6-1.49.26-2.8.9-3.94,1.93-1.14,1.02-2.12,2.25-2.95,3.67-.83,1.43-1.52,2.86-2.07,4.31-.55,1.45-.98,2.75-1.3,3.9-.46,1.66-.78,3.62-.97,5.9-.18,2.28-.06,4.35.35,6.19.36,1.61.98,2.85,1.87,3.69s2.21.94,3.99.33Z"/>
    <path class="cls-1" d="m429.99,888.08c-2.03.56-3.72.25-4.78-.92-.91-1-1.5-2.44-1.73-4.11-.27-1.87-.18-4,.25-6.36.43-2.36,1.13-4.79,2.07-7.28.35-.9.81-2.05,1.38-3.43.57-1.38,1.29-2.76,2.13-4.13-.81.73-1.81,1.38-3.02,1.97-1.21.58-2.45.99-3.71,1.21-.98.17-1.83.21-2.51.12-.46.88-1.2,2.31-2.27,4.31s-2.56,4.41-4.56,7.28c-.2.29-.43.32-.68.08-.25-.24-.42-.61-.51-1.11-.07-.4-.06-.84.02-1.31.09-.48.26-.94.51-1.39.65-1.08,1.29-2.19,1.91-3.34.62-1.14,1.17-2.16,1.66-3.05.49-.89.75-1.44.79-1.65-1.45-.23-2.63-.71-3.49-1.43-.86-.73-1.38-1.5-1.52-2.32-.14-.82.05-1.61.55-2.36.5-.75,1.33-1.39,2.44-1.91.68-.25,1.32-.41,1.93-.49,1.67-.22,3.03-.03,4.14.53-.04.21-.06.44-.06.67,0,.23.02.47.06.73.24,1.56,1.33,2.56,3.16,3.01,1.83.45,4.48.62,5.48-.11.71-.51,1.63-2.11,2.64-3,1.01-.89,2.14-1.44,3.41-1.63.66-.1,1.61-.23,2.84-.37,1.23-.14,2.1-.27,2.63-.4-.33.24-.68.66-1.07,1.28-.39.62-.75,1.27-1.07,1.93-.33.66-.59,1.18-.77,1.54-1.25,2.65-2.42,5.31-3.48,7.99-1.07,2.68-1.83,5.23-2.28,7.65-.07.46-.12.88-.17,1.26-.05.38-.04.77,0,1.16.19,1.45.91,2.03,2.12,1.71.85-.22,2.04-1.04,3.43-2.39,1.26-1.22,2.35-2.55,3.27-3.87,1.03-1.47,1.98-3.01,2.86-4.58.88-1.57,1.64-2.96,2.26-4.21.25-.41.43-.62.55-.64.36-.07.59.29.7,1.06.04.3.03.68-.03,1.14-.06.46-.21.92-.46,1.37-.75,1.28-1.6,2.71-2.55,4.3-.95,1.59-1.93,3.2-2.94,4.82-.66,1.04-1.61,2.3-2.87,3.8-1.26,1.5-2.63,2.92-4.13,4.24-1.51,1.32-3.01,2.21-4.54,2.63Z"/>
    <path class="cls-1" d="m452.33,881.55c-1.74.47-3.08.28-4.08-.57-.47-.41-.82-.95-1.08-1.6-.25-.66-.42-1.36-.51-2.1-.08-.74-.11-1.5-.08-2.28.03-.78.09-1.55.18-2.3.15-1.23.36-2.36.62-3.38.26-1.03.55-2.01.85-2.96,0-.03,0-.04,0-.07-.39.74-.89,1.57-1.5,2.49-.61.92-1.04,1.6-1.29,2.02-.35.58-.64.91-.88.96-.24.06-.38-.12-.43-.52-.12-.9.11-1.96.67-3.17.38-.81.9-1.85,1.58-3.12.68-1.27,1.37-2.63,2.08-4.07.71-1.44,1.31-2.8,1.79-4.09-2.48.34-3.68.52-6.07.9-.3.05-.39-.12-.26-.5.12-.38.33-.77.64-1.15.3-.39.54-.59.72-.62,2.73-.38,4.1-.57,6.98-.91.5-1.19,1.1-2.48,1.79-3.85.69-1.37,1.53-2.68,2.54-3.91,1.01-1.23,2.2-2.24,3.61-3.03,1.41-.79,3.07-1.19,5.02-1.22.86-.01,1.95-.02,3.32-.04,1.36-.01,2.24-.03,2.58-.08-1.66.59-3.39,1.77-5.19,3.56-1.8,1.79-3.54,4.35-5.29,7.69,4.27-.38,6.54-.55,11.65-.83.25-.01.19.13-.17.45-.37.31-.83.64-1.39.99-.56.35-1.12.54-1.67.58-4.11.3-5.98.47-9.54.84-.66,1.44-1.39,3.02-2.17,4.75-.78,1.74-1.46,3.46-2.04,5.16-.59,1.7-.97,3.29-1.19,4.68-.14.86-.18,1.65-.1,2.35.19,1.66,1.02,2.34,2.53,2,1.01-.22,2.19-.84,3.58-1.81,1.38-.97,2.8-2.17,4.21-3.57,1.3-1.29,2.57-2.63,3.83-3.99,1.26-1.37,2.36-2.57,3.28-3.64.28-.3.55-.46.8-.49.49-.05.78.24.86.85.04.31-.02.67-.17,1.1-.15.42-.45.86-.89,1.3-1.02,1.06-2.19,2.25-3.5,3.59-1.31,1.35-2.6,2.73-3.89,4.15-.91.93-2.08,2.03-3.48,3.35-1.4,1.32-2.86,2.56-4.39,3.73-1.52,1.17-2.99,1.97-4.43,2.36Z"/>
  </g>
</svg>